<svg width="26" height="39" viewBox="0 0 26 39" fill="none" xmlns="http://www.w3.org/2000/svg">
<path d="M25.0997 4.92824C24.7754 4.4316 24.3016 4.41734 23.7617 4.40108C23.7005 4.39924 23.6385 4.39738 23.5758 4.39478C23.528 4.39258 23.4753 4.39343 23.4202 4.39431C23.2012 4.39783 22.9451 4.40194 22.8161 4.21797C22.6665 4.00467 22.6807 3.59248 22.6924 3.2522C22.6961 3.14467 22.6995 3.04426 22.6975 2.95965C22.6765 2.16917 22.6326 1.32948 22.3275 1.04877C22.0974 0.83816 21.409 0.867338 20.7742 0.894247C20.5684 0.90297 20.3682 0.911455 20.1911 0.911455H6.67817C6.40609 0.911455 6.12089 0.8893 5.84068 0.867532C5.29465 0.825117 4.76753 0.784171 4.3932 0.911455C3.84995 1.09708 3.81316 2.07252 3.77853 2.99104L3.77666 3.04046C3.74758 3.79873 3.55966 4.38384 2.93686 4.32491C2.21249 4.25746 1.4917 4.2362 1.16419 4.89179C0.777392 5.66746 0.857165 6.47942 1.00005 7.93377C1.02046 8.14152 1.04216 8.36237 1.06397 8.5981H25.3086C25.3225 8.4258 25.3372 8.25571 25.3518 8.08838C25.4653 6.77991 25.5642 5.63986 25.0997 4.92824Z" fill="#8047F8"/>
<path fill-rule="evenodd" clip-rule="evenodd" d="M2.95207 10.0405C3.33072 15.1653 3.70525 20.296 4.07977 25.4267L4.08 25.4298C4.28336 28.2157 4.48671 31.0015 4.69074 33.7864H5.46432C5.51704 34.2224 5.57735 34.7605 5.64095 35.328C5.77004 36.4798 5.91264 37.7522 6.03254 38.5342H6.1181C6.90607 38.2458 12.3534 35.9175 12.3558 26.6477C12.3548 26.6212 12.3557 26.5948 12.3584 26.5686H11.0126C10.9475 26.5679 10.8843 26.5462 10.8329 26.5067C10.7815 26.4671 10.7446 26.412 10.728 26.3497C10.5968 26.0257 10.4911 25.6923 10.4117 25.3523C9.61998 25.7994 8.99126 26.4822 8.61516 27.3033C8.25814 26.4624 8.21141 25.5241 8.48314 24.6525C8.75486 23.781 9.32776 23.0315 10.1017 22.5351C10.1117 19.8302 11.1245 17.2227 12.9483 15.2062L12.9768 15.1812C13.0298 15.1354 13.0977 15.1099 13.1681 15.1093C13.2088 15.1096 13.249 15.1183 13.2861 15.1348C13.3237 15.1515 13.3573 15.1758 13.3848 15.2062C15.23 17.2254 16.2374 19.858 16.2061 22.5789C16.9945 23.0615 17.5791 23.8104 17.8513 24.6867C18.1235 25.563 18.0649 26.5071 17.6864 27.344C17.3123 26.5215 16.6831 25.8382 15.8898 25.3929C15.8414 25.7224 15.7521 26.0448 15.6241 26.3528C15.5799 26.4841 15.4913 26.5686 15.4027 26.5686H13.9675C13.9698 26.5843 13.9714 26.6001 13.9723 26.6159L13.9729 26.6196V26.6272C13.9734 26.6409 13.9734 26.6545 13.9729 26.6682C13.9926 36.2042 19.7842 38.3686 20.2724 38.5342H20.4394C20.482 37.7831 20.6208 36.7467 20.7561 35.7363C20.8493 35.04 20.9409 34.3561 20.9982 33.7864H21.7808C22.0312 30.2785 22.2888 26.7804 22.5464 23.2822L22.5466 23.2804L22.5467 23.2793C22.8762 18.8048 23.2057 14.3301 23.5203 9.83455H3.00218C2.94312 9.84609 2.94715 9.9427 2.95207 10.0405ZM13.1681 15.1093L13.1666 15.1093H13.1697L13.1681 15.1093Z" fill="#8047F8"/>
</svg>
